<svg width="320" height="98" viewBox="0 0 320 98" fill="none" xmlns="http://www.w3.org/2000/svg">
<path d="M32.695 97.485C28.375 97.485 24.685 96.99 21.625 96C18.655 95.1 16.36 93.345 14.74 90.735C13.21 88.125 12.445 84.435 12.445 79.665V45.51H9.205C3.265 45.51 0.295 43.08 0.295 38.22C0.295 35.88 0.925 34.08 2.185 32.82C3.445 31.56 5.74 30.93 9.07 30.93H12.445V17.295C12.445 14.415 13.165 12.21 14.605 10.68C16.135 9.14999 18.25 8.38499 20.95 8.38499C26.53 8.38499 29.32 11.355 29.32 17.295V30.93H37.96C43.9 30.93 46.87 33.36 46.87 38.22C46.87 43.08 43.945 45.51 38.095 45.51H29.32V75.21C29.32 78 29.995 79.89 31.345 80.88C32.785 81.87 34.81 82.365 37.42 82.365C40.48 82.365 42.82 82.815 44.44 83.715C46.06 84.525 46.87 86.415 46.87 89.385C46.87 91.815 46.195 93.615 44.845 94.785C43.495 95.955 41.74 96.675 39.58 96.945C37.42 97.305 35.125 97.485 32.695 97.485Z" fill="#CE6F00"/>
<path d="M83.687 97.485C77.657 97.485 72.212 96.09 67.352 93.3C62.582 90.51 58.802 86.55 56.012 81.42C53.312 76.29 51.962 70.305 51.962 63.465C51.962 56.535 53.312 50.55 56.012 45.51C58.802 40.38 62.582 36.42 67.352 33.63C72.212 30.75 77.657 29.31 83.687 29.31C89.807 29.31 95.252 30.75 100.022 33.63C104.792 36.42 108.527 40.38 111.227 45.51C114.017 50.55 115.412 56.535 115.412 63.465C115.412 70.305 114.017 76.29 111.227 81.42C108.527 86.55 104.792 90.51 100.022 93.3C95.252 96.09 89.807 97.485 83.687 97.485ZM83.687 82.095C88.007 82.095 91.517 80.52 94.217 77.37C97.007 74.13 98.402 69.495 98.402 63.465C98.402 57.345 97.007 52.71 94.217 49.56C91.517 46.32 88.007 44.7 83.687 44.7C79.367 44.7 75.857 46.32 73.157 49.56C70.547 52.71 69.242 57.345 69.242 63.465C69.242 69.495 70.547 74.13 73.157 77.37C75.857 80.52 79.367 82.095 83.687 82.095Z" fill="#CEAD00"/>
<path d="M153.497 97.485C147.467 97.485 142.022 96.18 137.162 93.57C132.392 90.87 128.612 87 125.822 81.96C123.122 76.83 121.772 70.665 121.772 63.465C121.772 56.175 123.122 50.01 125.822 44.97C128.612 39.84 132.392 35.97 137.162 33.36C142.022 30.66 147.467 29.31 153.497 29.31C159.527 29.31 164.702 31.335 169.022 35.385V8.92499C169.022 2.985 171.857 0.0149966 177.527 0.0149966C183.197 0.0149966 186.032 2.985 186.032 8.92499V87.09C186.032 93.03 183.602 96 178.742 96C173.882 96 171.317 94.965 171.047 92.895L170.642 89.79C166.052 94.92 160.337 97.485 153.497 97.485ZM154.172 82.095C158.492 82.095 162.092 80.52 164.972 77.37C167.942 74.13 169.427 69.495 169.427 63.465C169.427 57.345 167.942 52.71 164.972 49.56C162.092 46.32 158.492 44.7 154.172 44.7C149.852 44.7 146.252 46.32 143.372 49.56C140.492 52.71 139.052 57.345 139.052 63.465C139.052 69.495 140.492 74.13 143.372 77.37C146.252 80.52 149.852 82.095 154.172 82.095Z" fill="#00CC9B"/>
<path d="M227.393 97.485C221.363 97.485 215.918 96.09 211.058 93.3C206.288 90.51 202.508 86.55 199.718 81.42C197.018 76.29 195.668 70.305 195.668 63.465C195.668 56.535 197.018 50.55 199.718 45.51C202.508 40.38 206.288 36.42 211.058 33.63C215.918 30.75 221.363 29.31 227.393 29.31C233.513 29.31 238.958 30.75 243.728 33.63C248.498 36.42 252.233 40.38 254.933 45.51C257.723 50.55 259.118 56.535 259.118 63.465C259.118 70.305 257.723 76.29 254.933 81.42C252.233 86.55 248.498 90.51 243.728 93.3C238.958 96.09 233.513 97.485 227.393 97.485ZM227.393 82.095C231.713 82.095 235.223 80.52 237.923 77.37C240.713 74.13 242.108 69.495 242.108 63.465C242.108 57.345 240.713 52.71 237.923 49.56C235.223 46.32 231.713 44.7 227.393 44.7C223.073 44.7 219.563 46.32 216.863 49.56C214.253 52.71 212.948 57.345 212.948 63.465C212.948 69.495 214.253 74.13 216.863 77.37C219.563 80.52 223.073 82.095 227.393 82.095Z" fill="#006ACC"/>
<path d="M277.358 96C271.688 96 268.853 93.03 268.853 87.09V8.92499C268.853 2.985 271.688 0.0149966 277.358 0.0149966C283.028 0.0149966 285.863 2.985 285.863 8.92499V87.09C285.863 93.03 283.028 96 277.358 96Z" fill="#7800D6"/>
<path d="M309.379 96C303.709 96 300.874 93.03 300.874 87.09V39.84C300.874 33.9 303.709 30.93 309.379 30.93C315.049 30.93 317.884 33.9 317.884 39.84V87.09C317.884 93.03 315.049 96 309.379 96ZM309.244 21.21C306.364 21.21 303.889 20.175 301.819 18.105C299.839 16.035 298.849 13.56 298.849 10.68C298.849 7.8 299.839 5.36999 301.819 3.38999C303.889 1.31999 306.364 0.284993 309.244 0.284993C312.124 0.284993 314.554 1.31999 316.534 3.38999C318.604 5.36999 319.639 7.8 319.639 10.68C319.639 13.56 318.604 16.035 316.534 18.105C314.554 20.175 312.124 21.21 309.244 21.21Z" fill="#D600CD"/>
</svg>
